# xmcd CD database file
#
# Track frame offsets:
#	150
#	28071
#	46341
#	58814
#	75047
#	118010
#	149856
#	166149
#	196493
#	219889
#	239289
#	268473
#	291555
#
# Disc length: 4657 seconds
#
# Revision: 0
# Processed by: cddbd v1.5.2PL0 Copyright (c) Steve Scherf et al.
# Submitted via: CDex 1.51
#
DISCID=c7122f0d
DTITLE=RNCM Wind Orchestra - Dreamscapes
DYEAR=2002
DGENRE=Wind Band
TTITLE0=Martin Ellerby - Dreamscapes I. Eldorado
TTITLE1=Martin Ellerby - Dreamscapes II. Avalon
TTITLE2=Martin Ellerby - Dreamscapes III. Shangri-La
TTITLE3=Martin Ellerby - Dreamscapes IV. Xanadu
TTITLE4=Wilfred Josephs - Rail
TTITLE5=Martin Ellerby - Euphonium Concerto I. Fantasy
TTITLE6=Martin Ellerby - Euphonium Concerto II. Capriccio
TTITLE7=Martin Ellerby - Euphonium Concerto III. Rhapsody (for Luis)
TTITLE8=Martin Ellerby - Euphonium Concerto IV. Diversions
TTITLE9=Nigel Clarke - Mata Hari I. Dancer in the Shadows
TTITLE10=Nigel Clarke - Mata Hari II. Deceit and Seduction
TTITLE11=Nigel Clarke - Mata Hari III. Evasion and Capture
TTITLE12=Martin Ellerby - Meditations
EXTD=YEAR: 2002
EXTT0=
EXTT1=
EXTT2=
EXTT3=
EXTT4=
EXTT5=
EXTT6=
EXTT7=
EXTT8=
EXTT9=
EXTT10=
EXTT11=
EXTT12=
PLAYORDER=
